<?xml version="1.0" standalone="no"?>
<!DOCTYPE svg PUBLIC "-//W3C//DTD SVG 20010904//EN"
 "http://www.w3.org/TR/2001/REC-SVG-20010904/DTD/svg10.dtd">
<svg version="1.0" xmlns="http://www.w3.org/2000/svg"
 width="512.000000pt" height="512.000000pt" viewBox="0 0 512.000000 512.000000"
 preserveAspectRatio="xMidYMid meet">

<g transform="translate(0.000000,512.000000) scale(0.100000,-0.100000)"
fill="#000000" stroke="none">
<path d="M1508 5110 c-116 -20 -266 -80 -300 -121 -40 -47 -8 -119 52 -119 17
0 57 13 89 29 221 112 491 84 698 -73 162 -123 265 -353 250 -561 -12 -164
-72 -299 -187 -418 l-76 -78 -159 3 -160 3 -3 105 -2 105 44 18 c89 37 158
130 171 232 9 65 -18 105 -71 105 -44 0 -70 -26 -79 -81 -9 -55 -27 -85 -68
-109 -86 -53 -207 10 -207 106 0 47 -34 84 -76 84 -51 0 -74 -28 -74 -93 0
-97 84 -216 176 -249 l34 -12 0 -108 0 -108 -160 0 -159 0 -68 68 c-127 126
-183 255 -191 438 -6 158 18 255 98 387 47 78 52 119 15 143 -42 28 -76 21
-113 -22 -46 -54 -108 -183 -133 -279 -30 -113 -30 -290 0 -400 40 -147 114
-276 219 -379 l50 -48 -23 -35 c-34 -49 -48 -127 -35 -190 19 -86 64 -143 158
-199 2 -1 -4 -25 -14 -53 -36 -110 1 -227 94 -298 65 -49 97 -54 357 -51 l236
3 10 -40 c5 -22 12 -44 13 -50 2 -5 -8 -25 -22 -44 -60 -80 -80 -215 -47 -312
32 -90 114 -174 202 -204 34 -12 39 -17 45 -57 3 -23 7 -70 7 -103 3 -204 124
-436 293 -560 l56 -42 -69 -56 c-122 -100 -215 -243 -261 -403 -22 -76 -23
-93 -23 -429 0 -348 0 -350 24 -395 32 -61 67 -97 126 -128 l50 -27 1054 -3
c1182 -3 1119 -6 1205 69 91 81 91 77 94 454 4 446 -9 515 -97 515 -67 0 -83
-37 -62 -144 6 -33 11 -81 11 -108 l0 -48 -160 0 -160 0 0 24 c0 91 -79 138
-135 81 -24 -23 -25 -29 -25 -164 l0 -139 -202 -4 c-185 -4 -207 -6 -253 -27
-27 -12 -65 -34 -82 -47 l-33 -25 0 260 0 261 63 -34 c73 -40 215 -91 279
-101 61 -9 85 5 113 68 35 75 48 178 35 261 -10 66 -34 139 -53 164 -7 9 1 12
37 12 26 0 80 7 121 15 68 14 77 14 107 -1 57 -29 152 -100 190 -143 46 -51
94 -57 127 -15 36 46 28 71 -46 144 -38 36 -81 76 -98 88 l-30 22 30 22 c58
42 180 174 214 231 69 118 111 283 111 443 l0 50 54 23 c231 96 284 392 100
561 -33 29 -73 55 -104 65 -58 19 -56 14 -65 175 -3 63 -13 181 -21 263 l-15
147 59 68 c80 90 159 200 216 298 119 206 129 371 26 457 -81 68 -191 56 -331
-36 l-27 -18 -6 48 c-11 71 -41 127 -87 159 -33 23 -53 28 -117 32 -115 6
-219 -37 -307 -127 -16 -17 -33 -31 -37 -31 -3 0 -11 14 -17 30 -29 83 -95
130 -184 130 -89 0 -177 -56 -279 -178 l-36 -43 -72 36 c-165 83 -380 134
-509 120 -150 -16 -254 -67 -351 -173 -55 -59 -72 -73 -89 -67 -17 5 -19 11
-13 38 14 63 7 269 -12 342 -24 96 -95 237 -159 315 -180 221 -481 337 -759
290z m501 -1505 c30 -15 61 -69 61 -105 0 -29 -26 -76 -52 -94 -19 -14 -72
-16 -381 -16 l-359 0 -34 34 c-29 29 -34 41 -34 79 0 48 26 92 64 107 11 5
175 9 364 9 282 1 348 -2 371 -14z m2472 -530 c19 -233 19 -1035 1 -1120 -48
-213 -209 -386 -422 -450 -151 -45 -1205 -46 -1370 -1 -197 55 -355 208 -416
405 -21 67 -33 270 -34 553 l0 246 69 21 c82 25 172 88 232 163 39 49 129 221
129 247 0 16 1 16 80 -34 131 -80 308 -143 500 -177 46 -8 149 -13 265 -12
156 0 208 4 293 22 135 29 277 81 366 133 76 45 244 167 266 194 13 15 14 15
21 -2 3 -10 13 -94 20 -188z m-2585 121 c29 -29 34 -41 34 -80 0 -36 -6 -52
-29 -78 l-29 -33 -221 -3 c-184 -3 -225 -1 -250 13 -55 28 -76 97 -46 155 30
58 39 60 283 60 l224 0 34 -34z m192 -763 l-3 -87 -39 34 c-46 41 -66 84 -66
140 0 56 20 99 66 140 l39 34 3 -87 c1 -48 1 -126 0 -174z m2603 236 c68 -48
90 -164 47 -240 -19 -34 -65 -77 -73 -67 -5 6 -13 328 -8 328 3 0 18 -9 34
-21z m-1977 -1328 c33 -6 79 -11 102 -11 l42 0 -27 -62 c-23 -57 -26 -75 -26
-183 1 -101 5 -129 24 -178 28 -71 56 -92 114 -84 59 8 190 54 269 93 37 19
70 34 73 34 3 0 5 -112 5 -249 l0 -249 -81 42 -81 41 -204 3 -204 3 0 142 c0
131 -2 142 -22 164 -49 53 -128 14 -128 -64 l0 -43 -160 0 -160 0 0 68 c0 150
64 296 180 412 75 75 181 143 210 135 8 -2 42 -9 74 -14z m892 -60 c-62 -63
-123 -85 -236 -85 -75 0 -105 4 -141 20 -47 22 -119 79 -119 95 0 5 116 9 267
9 l267 0 -38 -39z m-497 -176 c28 -16 51 -33 51 -37 0 -8 -142 -67 -171 -70
-20 -3 -24 3 -31 42 -9 46 -5 91 13 147 l10 31 39 -41 c21 -23 61 -55 89 -72z
m670 68 c12 -43 14 -105 5 -152 -6 -26 -10 -31 -28 -26 -45 13 -176 68 -176
74 0 3 20 16 44 29 23 13 63 43 87 68 24 24 47 44 51 44 4 0 12 -17 17 -37z
m-1209 -658 c0 -67 3 -79 25 -100 24 -25 24 -25 238 -25 165 0 225 -4 266 -16
85 -25 164 -109 185 -196 l6 -28 -471 0 c-534 0 -522 -2 -559 74 -18 37 -20
62 -20 204 l0 162 165 0 165 0 0 -75z m1930 -97 c0 -156 -2 -176 -20 -206 -38
-62 -41 -62 -555 -62 -461 0 -465 0 -465 20 0 30 44 111 77 141 15 15 48 37
73 50 43 23 56 24 280 27 287 4 280 1 280 124 l0 78 165 0 165 0 0 -172z"/>
<path d="M2780 2767 c-88 -44 -104 -211 -28 -288 72 -72 168 3 168 132 0 66
-31 134 -71 154 -34 18 -37 18 -69 2z"/>
<path d="M3905 2770 c-44 -17 -85 -92 -85 -152 0 -88 51 -168 107 -168 108 0
155 208 66 292 -33 31 -61 40 -88 28z"/>
<path d="M3088 2235 c-52 -29 -49 -81 6 -156 140 -190 441 -179 568 20 42 67
35 121 -19 142 -39 14 -73 -4 -106 -56 -30 -47 -109 -95 -156 -95 -74 0 -141
43 -201 128 -20 28 -59 35 -92 17z"/>
<path d="M382 4927 c-45 -47 -33 -70 106 -209 108 -108 133 -128 158 -128 38
0 74 36 74 75 0 24 -23 52 -128 157 -108 108 -133 128 -158 128 -19 0 -39 -9
-52 -23z"/>
<path d="M176 4419 c-33 -26 -36 -79 -6 -109 18 -18 33 -20 196 -20 104 0 183
4 195 11 48 25 44 105 -7 128 -15 7 -88 11 -188 11 -150 0 -165 -2 -190 -21z"/>
<path d="M605 4121 c-16 -10 -78 -68 -137 -128 -84 -85 -108 -116 -108 -137 0
-65 49 -97 105 -70 18 8 83 66 144 129 91 93 111 119 111 143 0 63 -62 97
-115 63z"/>
</g>
</svg>
