<svg xmlns="http://www.w3.org/2000/svg" width="32.75" height="32.75"><path d="M29.375 1.25h-1.124c.028-.093.058-.186.058-.289a.96.96 0 10-1.922 0c0 .103.028.196.059.289h-3.68c.029-.093.058-.186.058-.289a.962.962 0 00-1.924 0 .93.93 0 00.059.289h-3.68c.029-.093.058-.186.058-.289a.961.961 0 00-1.923 0c0 .103.029.196.058.289h-3.68c.029-.093.058-.186.058-.289a.962.962 0 00-1.923 0c0 .103.028.196.058.289h-3.68a.929.929 0 00.058-.289.96.96 0 10-1.922 0c0 .103.029.196.058.289H3.375A2.752 2.752 0 00.625 4v26a2.752 2.752 0 002.75 2.75H26.27l5.855-5.855V4a2.752 2.752 0 00-2.75-2.75zm1.25 25.023l-.311.311h-2.356c-1.101 0-2 .9-2 2v2.355l-.31.311H3.375c-.689 0-1.25-.561-1.25-1.25V9h28.5v17.273z"/><path d="M5.563 21.127l-.055-1.231-.11-1.167h.022l1.441 5.083h1.804l1.441-5.083h.022l-.131 1.431-.034 1.233v2.419h2.333v-7.921H9.16l-1.397 4.94-1.397-4.94H3.23v7.921h2.333zM16.98 24.021c2.344 0 4.16-1.519 4.16-4.213 0-2.091-1.332-4.126-4.16-4.126-2.463 0-4.146 1.618-4.146 4.104-.001 2.694 1.661 4.235 4.146 4.235zm-.021-6.403c1.145-.033 1.584 1.11 1.584 2.188 0 1.31-.439 2.277-1.562 2.277-1.243 0-1.55-1.266-1.55-2.277-.001-.999.351-2.188 1.528-2.188zM24.264 21.305l-.1-1.805 2.827 4.312h2.431v-7.921h-2.486v2.519l.099 1.804-2.827-4.323h-2.433v7.921h2.489z"/></svg>